<svg id="Capa_1" data-name="Capa 1" xmlns="http://www.w3.org/2000/svg" viewBox="0 0 100 100"><path d="M100,18.75v62.5A18.78,18.78,0,0,1,81.25,100H66.67a13,13,0,0,1-1.6-.07,5.75,5.75,0,0,1-1.27-.32,1.79,1.79,0,0,1-1-.94,4.18,4.18,0,0,1-.33-1.79V81.32q0-6.31-3.38-9.25a44.59,44.59,0,0,0,6.67-1.17,26.46,26.46,0,0,0,6.12-2.54A18.2,18.2,0,0,0,77.12,64a20.08,20.08,0,0,0,3.45-6.84A32.75,32.75,0,0,0,81.9,47.4,19,19,0,0,0,76.76,34q2.4-5.92-.52-13.28-1.83-.59-5.28.72a35.63,35.63,0,0,0-6,2.86L62.5,25.85a46.81,46.81,0,0,0-25,0c-.69-.48-1.62-1.07-2.77-1.76a38.78,38.78,0,0,0-5.43-2.51c-2.48-1-4.34-1.27-5.6-.88Q20.84,28.07,23.24,34A19,19,0,0,0,18.1,47.4a32.45,32.45,0,0,0,1.33,9.76A21,21,0,0,0,22.85,64a17.67,17.67,0,0,0,5.24,4.36,26.82,26.82,0,0,0,6.12,2.54,44.73,44.73,0,0,0,6.68,1.17,10.53,10.53,0,0,0-3.19,6.71,12.92,12.92,0,0,1-2.93,1,18.28,18.28,0,0,1-3.72.33,7.68,7.68,0,0,1-4.26-1.4,11.47,11.47,0,0,1-3.61-4.07A10.6,10.6,0,0,0,20,71.22a9.84,9.84,0,0,0-3.22-1.56l-1.31-.19a4.11,4.11,0,0,0-1.88.29q-.52.28-.33.75a3.61,3.61,0,0,0,.59.91,5.12,5.12,0,0,0,.84.78l.46.33A7.77,7.77,0,0,1,18,75a16.32,16.32,0,0,1,2.05,3.32l.65,1.5a8.26,8.26,0,0,0,2.87,4,10.08,10.08,0,0,0,4.36,2,26.76,26.76,0,0,0,4.52.46A18.81,18.81,0,0,0,36.07,86l1.5-.26q0,2.48,0,6.71c0,2.82,0,4.29,0,4.43a3,3,0,0,1-.72,2.18,2.44,2.44,0,0,1-1.43.84,16.3,16.3,0,0,1-2.15.1H18.75A18.06,18.06,0,0,1,5.5,94.5,18.06,18.06,0,0,1,0,81.25V18.75A18.06,18.06,0,0,1,5.5,5.5,18.06,18.06,0,0,1,18.75,0h62.5A18.06,18.06,0,0,1,94.5,5.5,18.06,18.06,0,0,1,100,18.75Z" transform="translate(0 0)"/></svg>