<svg id="Layer_1" data-name="Layer 1" xmlns="http://www.w3.org/2000/svg" viewBox="0 0 362.41 362.43"><defs><style>.cls-1{fill:#111;}</style></defs><path class="cls-1" d="M287.77,169.18a3.21,3.21,0,0,0-3.29,1.84c-.52,1.23-.82,4.4-.82,9.43v29.39c0,4.91.3,8.08.93,9.43a3.32,3.32,0,0,0,3.37,2c1.74,0,4.1-.71,4.6-2.15s.82-4.81.82-10.13V180.45c0-4.61-.29-7.68-.92-9.11S289.5,169.18,287.77,169.18Z" transform="translate(0 0)"/><path class="cls-1" d="M216.09,144.81c-1.14-.72-3.29-1-6.36-1v73c4.09,0,6.65-.82,7.57-2.56s1.44-6.15,1.44-13.52V157.61c0-5-.1-8.29-.51-9.73A4.35,4.35,0,0,0,216.09,144.81Z" transform="translate(0 0)"/><path class="cls-1" d="M338.49,0c-.19,0-.37,0-.56,0H24.48A26,26,0,0,0,0,24.09L0,338a25.84,25.84,0,0,0,23.5,24.44,5.17,5.17,0,0,0,.68,0H338.24l.67,0a26,26,0,0,0,23.5-25.8V25.82A26,26,0,0,0,338.49,0ZM72.41,236H43.63V124.74H72.41Zm98.71,0H146V160.88L135.9,236H118l-10.55-73.43-.1,73.43H82.14V124.74h37.27c1.13,6.76,2.25,14.64,3.48,23.76l4.1,28.27,6.65-52h37.48Zm75.16-33c0,9.93-.62,16.59-1.54,20a14.58,14.58,0,0,1-4.9,7.87,18.66,18.66,0,0,1-8.61,4A80.43,80.43,0,0,1,215.77,236H181V124.74h21.51c13.82,0,21.91.72,26.72,1.94s8.7,3.38,11.27,6.36a19.25,19.25,0,0,1,4.71,9.73c.71,3.57,1.12,10.64,1.12,21.19Zm74.86,7.48a64.61,64.61,0,0,1-1.34,14.85,15.82,15.82,0,0,1-6.34,8.5,19,19,0,0,1-11.78,3.58,26.23,26.23,0,0,1-10.23-2,24.19,24.19,0,0,1-7.79-6.46L281.92,236H256V124.74h27.64V161a24.56,24.56,0,0,1,7.68-6A29,29,0,0,1,301.68,153a26.35,26.35,0,0,1,9.94,1.74,14.49,14.49,0,0,1,9,11.37,108.59,108.59,0,0,1,.52,13.11Z" transform="translate(0 0)"/></svg>