<svg id="Capa_1" data-name="Capa 1" xmlns="http://www.w3.org/2000/svg" viewBox="0 0 100 100"><path d="M88.1,0H11.9A11.9,11.9,0,0,0,0,11.9V88.1A11.9,11.9,0,0,0,11.9,100H88.1A11.9,11.9,0,0,0,100,88.1V11.9A11.9,11.9,0,0,0,88.1,0ZM31,38.1V83.33H16.67V38.1ZM16.67,24.93c0-3.33,2.85-5.88,7.14-5.88s7,2.55,7.14,5.88c0,3.33-2.66,6-7.14,6C19.52,31,16.67,28.26,16.67,24.93Zm66.66,58.4H69.05V59.52c0-4.76-2.38-9.52-8.34-9.62h-.19c-5.76,0-8.14,4.91-8.14,9.62V83.33H38.1V38.1H52.38v6.09A17.85,17.85,0,0,1,66.21,38.1c9.46,0,17.12,6.5,17.12,19.66Z" transform="translate(0 0)"/></svg>