<?xml version="1.0" encoding="utf-8"?>
<!-- Generator: Adobe Illustrator 25.0.0, SVG Export Plug-In . SVG Version: 6.00 Build 0)  -->
<svg version="1.1" id="Capa_1" xmlns="http://www.w3.org/2000/svg" xmlns:xlink="http://www.w3.org/1999/xlink" x="0px" y="0px"
	 viewBox="0 0 100 100" style="enable-background:new 0 0 100 100;" xml:space="preserve">
<style type="text/css">
	.st0{fill:#222222;}
	.st1{fill:#F2F2F2;}
</style>
<circle class="st0" cx="50" cy="50" r="47.84"/>
<g>
	<g>
		<path class="st1" d="M30.1,18.05h12.04v63.9H30.1V18.05z M35.59,45.56h20.43c1.44,0,2.7-0.33,3.8-0.99
			c1.1-0.66,1.96-1.59,2.57-2.79c0.62-1.2,0.92-2.58,0.92-4.13c0-1.58-0.3-2.98-0.9-4.2c-0.6-1.22-1.45-2.15-2.55-2.81
			c-1.1-0.66-2.38-0.99-3.85-0.99H35.59v-11.6h20.13c3.98,0,7.49,0.81,10.52,2.44c3.03,1.63,5.38,3.92,7.05,6.88
			c1.67,2.96,2.5,6.39,2.5,10.28c0,3.9-0.83,7.32-2.5,10.26s-4.02,5.22-7.05,6.83c-3.03,1.61-6.54,2.42-10.52,2.42H35.59V45.56z"/>
	</g>
</g>
</svg>
