<svg id="Capa_1" data-name="Capa 1" xmlns="http://www.w3.org/2000/svg" viewBox="0 0 100 100"><path d="M77.78,0H22.22A22.22,22.22,0,0,0,0,22.22V77.78A22.22,22.22,0,0,0,22.22,100H77.78A22.22,22.22,0,0,0,100,77.78V22.22A22.22,22.22,0,0,0,77.78,0Zm.28,36.19v1.9c0,18.1-13.82,39.05-39.05,39.05A40,40,0,0,1,18.06,71h3.33a30.81,30.81,0,0,0,17.14-5.72c-6.19,0-11-4.28-12.85-9.52a21.12,21.12,0,0,1,2.38.47,10.62,10.62,0,0,0,3.81-.47A13.76,13.76,0,0,1,20.92,42.38a23.88,23.88,0,0,0,6.19,1.91C23.3,41,20.92,37.14,20.92,32.38a10.9,10.9,0,0,1,1.91-6.66A38.63,38.63,0,0,0,50.92,40c0-1-.48-1.91-.48-3.33A13.82,13.82,0,0,1,64.26,22.86a13,13,0,0,1,10,4.28,23.35,23.35,0,0,0,8.57-3.33c-1,3.33-3.34,5.71-6.19,7.61A26.17,26.17,0,0,0,84.73,29,32.08,32.08,0,0,1,78.06,36.19Z"/></svg>