<svg width="164" height="174" viewBox="0 0 164 174" fill="none" xmlns="http://www.w3.org/2000/svg">
<mask id="path-1-outside-1_133_2" maskUnits="userSpaceOnUse" x="0" y="0.370117" width="164" height="174" fill="black">
<rect fill="white" y="0.370117" width="164" height="174"/>
<path fill-rule="evenodd" clip-rule="evenodd" d="M100.919 113.66C90.9129 121.111 78.5089 125.52 65.075 125.52C31.8965 125.52 5 98.6236 5 65.4451C5 32.2666 31.8965 5.37012 65.075 5.37012C98.2535 5.37012 125.15 32.2666 125.15 65.4451C125.15 82.6088 117.952 98.0912 106.41 109.039L156.843 161.83L151.663 166.779L100.919 113.66ZM96.5921 106.169C87.8821 112.92 76.9478 116.938 65.075 116.938C36.6363 116.938 13.5821 93.8838 13.5821 65.445C13.5821 37.0063 36.6363 13.9522 65.075 13.9522C93.5137 13.9522 116.568 37.0063 116.568 65.445C116.568 80.1683 110.389 93.4482 100.482 102.833L100.292 102.634L96.5921 106.169Z"/>
</mask>
<path fill-rule="evenodd" clip-rule="evenodd" d="M100.919 113.66C90.9129 121.111 78.5089 125.52 65.075 125.52C31.8965 125.52 5 98.6236 5 65.4451C5 32.2666 31.8965 5.37012 65.075 5.37012C98.2535 5.37012 125.15 32.2666 125.15 65.4451C125.15 82.6088 117.952 98.0912 106.41 109.039L156.843 161.83L151.663 166.779L100.919 113.66ZM96.5921 106.169C87.8821 112.92 76.9478 116.938 65.075 116.938C36.6363 116.938 13.5821 93.8838 13.5821 65.445C13.5821 37.0063 36.6363 13.9522 65.075 13.9522C93.5137 13.9522 116.568 37.0063 116.568 65.445C116.568 80.1683 110.389 93.4482 100.482 102.833L100.292 102.634L96.5921 106.169Z" fill="#F2F2F2" fill-opacity="0.7"/>
<path d="M100.919 113.66L104.534 110.206L101.479 107.009L97.9324 109.65L100.919 113.66ZM106.41 109.039L102.97 105.411L99.3289 108.864L102.795 112.493L106.41 109.039ZM156.843 161.83L160.297 165.446L163.912 161.992L160.458 158.377L156.843 161.83ZM151.663 166.779L148.048 170.232L151.502 173.848L155.117 170.394L151.663 166.779ZM96.5921 106.169L99.6551 110.121L99.8592 109.963L100.046 109.784L96.5921 106.169ZM100.482 102.833L96.8667 106.287L100.306 109.887L103.921 106.463L100.482 102.833ZM100.292 102.634L103.908 99.1805L100.454 95.565L96.8384 99.0189L100.292 102.634ZM65.075 130.52C79.6211 130.52 93.0657 125.742 103.905 117.67L97.9324 109.65C88.7601 116.48 77.3967 120.52 65.075 120.52V130.52ZM0 65.4451C0 101.385 29.1351 130.52 65.075 130.52V120.52C34.6579 120.52 10 95.8622 10 65.4451H0ZM65.075 0.370117C29.1351 0.370117 0 29.5052 0 65.4451H10C10 35.028 34.6579 10.3701 65.075 10.3701V0.370117ZM130.15 65.4451C130.15 29.5052 101.015 0.370117 65.075 0.370117V10.3701C95.4921 10.3701 120.15 35.028 120.15 65.4451H130.15ZM109.851 112.666C122.347 100.814 130.15 84.0368 130.15 65.4451H120.15C120.15 81.1807 113.557 95.3684 102.97 105.411L109.851 112.666ZM102.795 112.493L153.227 165.284L160.458 158.377L110.026 105.585L102.795 112.493ZM153.389 158.215L148.209 163.163L155.117 170.394L160.297 165.446L153.389 158.215ZM155.279 163.325L104.534 110.206L97.3032 117.114L148.048 170.232L155.279 163.325ZM65.075 121.938C78.0953 121.938 90.0995 117.527 99.6551 110.121L93.5291 102.217C85.6646 108.312 75.8003 111.938 65.075 111.938V121.938ZM8.58215 65.445C8.58215 96.6452 33.8749 121.938 65.075 121.938V111.938C39.3977 111.938 18.5821 91.1223 18.5821 65.445H8.58215ZM65.075 8.95216C33.8749 8.95216 8.58215 34.2449 8.58215 65.445H18.5821C18.5821 39.7677 39.3977 18.9522 65.075 18.9522V8.95216ZM121.568 65.445C121.568 34.2449 96.2752 8.95216 65.075 8.95216V18.9522C90.7523 18.9522 111.568 39.7677 111.568 65.445H121.568ZM103.921 106.463C114.783 96.1732 121.568 81.5974 121.568 65.445H111.568C111.568 78.7391 105.995 90.7233 97.0434 99.2033L103.921 106.463ZM96.6768 106.088L96.8667 106.287L104.098 99.3793L103.908 99.1805L96.6768 106.088ZM100.046 109.784L103.746 106.25L96.8384 99.0189L93.1383 102.554L100.046 109.784Z" fill="#F2F2F2" fill-opacity="0.7" mask="url(#path-1-outside-1_133_2)"/>
</svg>
